<svg width="191" height="144" viewBox="0 0 191 144" fill="none" xmlns="http://www.w3.org/2000/svg">
<path fill-rule="evenodd" clip-rule="evenodd" d="M99.373 11.6097C138.587 13.4999 169.808 46.2262 169.808 86.324C169.808 97.0195 167.582 107.188 163.58 116.39H27.9966C23.995 107.188 21.769 97.0195 21.769 86.324C21.769 59.565 35.6755 36.0921 56.5803 22.8719C58.1458 33.7357 67.4004 42.0798 78.5845 42.0798C90.8666 42.0798 100.823 32.0175 100.823 19.6055C100.823 16.7889 100.309 14.0941 99.373 11.6097Z" fill="#EDE7B0"/>
<path fill-rule="evenodd" clip-rule="evenodd" d="M99.3751 11.6082C114.172 12.3216 127.829 17.4282 139.102 25.6623C133.979 28.1708 129.188 31.4177 124.89 35.3453C116.401 43.1047 104.449 45.6747 93.5693 42.0801C91.2682 41.3199 88.9293 40.8242 86.5895 40.5795C94.9174 37.3323 100.826 29.1667 100.826 19.6057C100.826 16.7884 100.312 14.093 99.3751 11.6082ZM74.1698 41.6359C67.2192 43.5846 60.9045 47.7876 56.3483 53.8901C52.651 58.8422 47.7342 62.7289 42.0878 65.163C36.3384 67.6415 30.1199 68.7339 23.9202 68.3834C28.5782 49.2627 40.5122 33.0377 56.5829 22.8723C57.9369 32.2667 65.0405 39.7764 74.1698 41.6359Z" fill="#F5F0BF"/>
<path fill-rule="evenodd" clip-rule="evenodd" d="M169.737 89.6473C169.326 99.1264 167.167 108.146 163.582 116.389H27.9985C24.3083 107.904 22.1282 98.5963 21.8112 88.8114C24.6559 88.9495 27.4912 89.6332 30.1598 90.878C35.5019 93.3699 41.8381 91.8327 45.4786 87.1615C54.1523 76.0321 68.9767 71.8907 82.0753 76.9375C93.073 81.1748 105.295 80.76 115.987 75.7864C127.671 70.3511 141.451 72.6267 150.815 81.5383C156.031 86.5017 162.766 89.3166 169.737 89.6473Z" fill="#D9D186"/>
<path fill-rule="evenodd" clip-rule="evenodd" d="M130.165 65.0815C130.542 65.0815 130.878 65.1732 131.17 65.3431C133.432 59.9176 137.558 55.818 141.034 55.818C143.804 55.818 145.423 58.4212 145.461 62.2244C146.366 61.5083 147.307 61.0937 148.182 61.0937C149.593 61.0937 150.528 62.1718 150.842 63.8553C152.149 61.5256 154.043 59.8938 155.679 59.8938C157.87 59.8938 158.766 62.8211 157.682 66.4322C157.67 66.4711 157.658 66.5097 157.646 66.5484C157.834 66.4728 158.02 66.4322 158.199 66.4322C159.049 66.4322 159.499 67.3367 159.38 68.5936L164.088 69.219H119.612L125.799 68.4579C127.025 66.4531 128.704 65.0815 130.165 65.0815ZM90.4207 53.8897L84.2237 53.2536C84.957 51.5329 84.4745 50.1729 83.0885 50.1729C82.0842 50.1729 80.8699 50.887 79.9289 51.9348C79.534 50.7361 78.5611 49.9967 77.097 49.9967C75.5951 49.9967 73.8646 50.7747 72.2887 52.0284L72.1461 52.0138C72.6882 49.0975 71.4618 47.0188 68.8544 47.0188C67.3978 47.0188 65.7504 47.6676 64.1872 48.7486C63.9947 45.5225 62.0786 43.4034 58.7548 43.4034C55.9098 43.4034 52.6083 44.9561 49.6565 47.4264C49.3477 46.1227 48.3901 45.3033 46.8883 45.3033C44.0709 45.3033 40.4053 48.1865 38.7011 51.7432C38.4707 52.2239 38.2885 52.6921 38.1516 53.1428L30.1595 53.8897H90.4207Z" fill="#E7CAC9"/>
<path d="M95.7877 132.392C141.387 132.392 178.352 125.227 178.352 116.39C178.352 107.552 141.387 100.388 95.7877 100.388C50.1885 100.388 13.223 107.552 13.223 116.39C13.223 125.227 50.1885 132.392 95.7877 132.392Z" fill="#9EC93A"/>
<path d="M117.717 118.224C115 118.224 112.535 117.054 112.213 115.612C111.89 114.169 113.831 113 116.548 113C119.265 113 121.729 114.169 122.052 115.612C122.375 117.054 120.434 118.224 117.717 118.224Z" fill="#B0DB4B"/>
<path fill-rule="evenodd" clip-rule="evenodd" d="M108.567 84.6227L111.477 89.5958C113.392 97.7778 117.634 105.742 123.734 112.61L127.195 104.019L122.146 88.1418C122.676 74.9862 101.735 72.9472 108.567 84.6227ZM52.0798 70.4L52.0823 70.4011C52.1576 70.4441 52.2349 70.4836 52.3138 70.5195C55.3649 72.1209 57.1425 74.8705 58.0588 78.3959C58.7904 75.7122 59.5221 73.0285 60.2536 70.3447C58.613 69.3635 57.272 67.4067 56.5987 66.0292C56.3518 65.3872 55.8968 64.8292 55.2644 64.4624C54.1486 63.8157 53.2271 64.0142 52.2808 63.2261C50.5483 61.7834 50.2114 59.8238 48.0028 59.1302C47.4112 57.9743 46.1278 57.6612 45.2194 58.4513C43.7959 59.6896 42.9553 59.8873 41.5319 61.1256C40.9396 61.3599 39.9642 62.7759 39.9042 63.5232C39.7919 64.92 41.2589 64.5901 42.0862 65.1629C44.5575 66.5625 46.8179 66.1863 49.2888 67.5854C50.2567 68.1336 50.7675 69.3424 51.6052 70.0632C51.7563 70.1932 51.9149 70.3055 52.08 70.3999L52.0798 70.4Z" fill="#E7CAC9"/>
<path fill-rule="evenodd" clip-rule="evenodd" d="M76.5898 88.8984L72.6129 80.1657C70.0244 74.4814 63.5758 72.1669 58.3967 68.737L55.9655 72.6075L57.7795 78.2586C60.4636 84.6912 65.2795 89.9793 71.4008 93.2149L76.5898 88.8984ZM108.955 49.6047L110.508 48.211C113.781 45.2715 118.731 45.5139 121.717 48.76C125.041 52.3719 127.745 56.5354 129.716 61.0744C131.672 65.5794 130.319 70.8759 126.46 73.8122C122.708 76.668 120.164 80.8935 119.352 85.6186L106.69 77.8082L108.955 49.6047Z" fill="#E7CAC9"/>
<path fill-rule="evenodd" clip-rule="evenodd" d="M115.804 47.1487L113.375 46.267C110.235 45.1271 106.755 45.2906 103.742 46.7194C100.728 48.1481 98.4427 50.7183 97.4142 53.8344C95.6433 59.2 92.7516 64.1474 88.9222 68.3632C85.3894 72.2524 85.675 78.1868 89.5656 81.7347C93.4562 85.2827 99.5316 85.1489 103.255 81.4333L115.977 64.9489L115.804 47.1487Z" fill="#E7CAC9"/>
<path fill-rule="evenodd" clip-rule="evenodd" d="M109.444 50.9483L110.986 49.5545C114.238 46.6151 119.154 46.8575 122.12 50.1037C125.421 53.7154 128.108 57.879 130.066 62.418C132.009 66.923 130.664 72.2194 126.832 75.1557C123.104 78.0116 120.577 82.2371 119.771 86.9621L107.195 79.1517L109.444 50.9483Z" fill="#1B210D"/>
<path fill-rule="evenodd" clip-rule="evenodd" d="M115.265 48.3702L112.948 47.5007C109.953 46.3767 106.633 46.5379 103.759 47.9469C100.884 49.3557 98.7033 51.8902 97.7222 54.963C96.0329 60.2541 93.2743 65.1328 89.6214 69.29C86.2512 73.1252 86.5236 78.9771 90.2351 82.4758C93.9465 85.9744 99.742 85.8425 103.294 82.1786L115.43 65.9231L115.265 48.3702Z" fill="#1B210D"/>
<path fill-rule="evenodd" clip-rule="evenodd" d="M51.501 70.7618C54.6958 72.466 56.5404 75.3357 57.4799 78.9864C58.2115 76.3306 58.9432 73.6749 59.6747 71.019C58.0342 69.9752 56.6931 67.967 56.0198 66.5638C54.4501 67.7055 53.0707 69.6201 51.501 70.7618Z" fill="#D97109"/>
<path fill-rule="evenodd" clip-rule="evenodd" d="M51.0245 70.4064C50.1867 69.6537 49.6759 68.4252 48.708 67.8401C46.2371 66.3465 43.9767 66.6363 41.5054 65.1423C40.678 64.5378 39.2111 64.8117 39.3233 63.4193C39.3835 62.6742 40.3588 61.2954 40.9511 61.0838C42.3745 59.9 43.2151 59.7344 44.6386 58.5505C45.547 57.7951 46.8304 58.1572 47.4221 59.3357C49.6306 60.1138 49.9676 62.0862 51.7001 63.5952C52.6464 64.4195 53.5679 64.2562 54.6836 64.9456C56.129 65.8388 56.6469 67.696 55.8754 69.2205C55.8258 69.3184 55.7762 69.4164 55.7267 69.5143C55.2861 70.3848 54.5431 70.946 53.5922 71.1264C52.6413 71.3069 51.7473 71.0562 51.0245 70.4064Z" fill="#F08418"/>
<path fill-rule="evenodd" clip-rule="evenodd" d="M75.4384 91.2975L72.4289 82.1782C70.4699 76.2421 63.7989 73.2704 59.0215 69.2895L56.1865 72.8685L57.8902 78.6457C59.8632 85.3361 64.079 91.1239 69.814 95.0157L75.4384 91.2975Z" fill="#D97109"/>
<path fill-rule="evenodd" clip-rule="evenodd" d="M75.057 90.1444L72.4279 82.1778C71.4391 79.1814 69.2492 76.9405 66.7087 74.9436C66.1708 75.069 65.659 75.3197 65.2183 75.6896C61.9092 78.4666 65.6521 88.8345 71.4377 90.1522C72.6498 90.4282 73.8853 90.4166 75.057 90.1444Z" fill="#F08418"/>
<path fill-rule="evenodd" clip-rule="evenodd" d="M46.4122 97.5982L48.2133 90.6495C50.3311 82.4778 55.089 74.5847 58.4048 66.8889C59.6999 63.8842 60.9485 65.3878 61.4368 67.3402C63.0466 73.7763 63.2799 80.4876 62.1202 86.9834C61.1774 92.2638 58.6846 97.0711 54.9934 100.727L46.4122 97.5982Z" fill="#FF9933"/>
<path fill-rule="evenodd" clip-rule="evenodd" d="M62.4736 72.8678C63.067 77.5632 62.9514 82.3286 62.1203 86.9832C61.3768 91.1474 59.6692 95.0171 57.1702 98.2604L52.9333 94.6764C58.8136 94.2218 61.8579 84.3217 62.3031 76.0398L62.4736 72.8678Z" fill="#F08418"/>
<path fill-rule="evenodd" clip-rule="evenodd" d="M85.2237 89.8951L81.042 88.7419C73.0854 87.376 64.9033 89.4956 58.0897 93.6092C56.7452 94.421 55.2156 94.8628 53.6302 94.7836C51.384 94.6713 49.3493 95.9954 48.5431 98.0938C46.4285 103.598 48.4829 108.022 55.8864 109.403C67.2989 111.998 79.0929 111.645 90.1697 108.377L85.2237 89.8951Z" fill="#E7CAC9"/>
<path d="M102.46 115.612C131.826 115.612 155.632 112.873 155.632 109.494C155.632 106.116 131.826 103.377 102.46 103.377C73.0935 103.377 49.2875 106.116 49.2875 109.494C49.2875 112.873 73.0935 115.612 102.46 115.612Z" fill="#364513"/>
<path fill-rule="evenodd" clip-rule="evenodd" d="M108.199 84.1355L110.834 89.1087C112.294 97.2907 116.094 105.255 121.813 112.123L125.751 103.532L121.583 87.6547C122.843 74.499 102.015 72.46 108.199 84.1355Z" fill="#F08418"/>
<path fill-rule="evenodd" clip-rule="evenodd" d="M85.1865 91.9588L81.009 90.5839C73.0604 88.7971 64.9045 90.9916 58.0976 94.75C56.7544 95.4916 53.1208 94.6408 51.537 94.4779C49.2931 94.2471 47.2604 95.465 46.455 97.5231C44.3423 102.921 48.4822 108.167 55.8783 109.939C67.2793 113.138 79.0614 113.407 90.1271 110.72L85.1865 91.9588Z" fill="#FF9933"/>
<path fill-rule="evenodd" clip-rule="evenodd" d="M46.176 102.307C47.1574 105.787 50.7274 108.705 55.8768 109.939C66.9674 113.051 78.4188 113.39 89.2205 110.932L86.2667 99.6916L71.8503 102.882C68.9917 108.049 51.2335 108.153 46.176 102.307Z" fill="#F08418"/>
<path d="M64.5068 98.5017C68.82 96.9755 72.0959 94.548 71.8237 93.0796C71.5515 91.6113 67.8343 91.6582 63.5211 93.1844C59.208 94.7105 55.9321 97.1381 56.2043 98.6064C56.4765 100.075 60.1937 100.028 64.5068 98.5017Z" fill="#FFAA54"/>
<path fill-rule="evenodd" clip-rule="evenodd" d="M95.04 111.81L83.0314 111.388C77.5393 111.196 72.6104 107.911 70.4555 103.008C65.7483 92.2986 77.7329 81.1747 89.0766 85.1693C96.8559 83.0081 102.982 85.2202 107.719 93.1546C110.201 97.3117 110.08 102.406 107.405 106.341C104.73 110.277 99.9598 111.983 95.04 111.81Z" fill="#E7CAC9"/>
<path fill-rule="evenodd" clip-rule="evenodd" d="M58.51 66.7957L59.3624 63.4896C59.9993 61.0196 60.2628 58.4596 60.144 55.8958C60.089 54.7064 60.8577 53.6537 61.9928 53.3637L64.9795 51.8051L65.3576 51.2617C65.7078 50.7586 66.3327 50.5322 66.9285 50.6928C67.5243 50.8533 67.9671 51.3673 68.0417 51.9848C68.1243 52.6683 68.0904 53.3589 67.9416 54.0263C67.7766 54.7662 67.8257 55.5426 68.083 56.2632C68.6082 57.734 68.2008 59.3631 67.0543 60.3765C66.3925 60.9615 66.028 61.8191 66.0599 62.7164C66.1053 63.9939 66.1832 65.2707 66.2938 66.5454C66.4029 67.8036 65.9418 69.033 65.0405 69.887C64.1391 70.741 62.8951 71.1271 61.6593 70.9364C59.6864 70.632 58.0149 68.7153 58.51 66.7957Z" fill="#FF9933"/>
<path fill-rule="evenodd" clip-rule="evenodd" d="M67.2409 60.1988C67.1806 60.26 67.1181 60.3197 67.053 60.3772C66.391 60.9623 66.0267 61.8198 66.0585 62.7171C66.104 63.9946 66.1819 65.2713 66.2924 66.546C66.3187 66.8492 66.3119 67.1508 66.2738 67.4458C66.1343 66.5893 65.7312 65.7992 65.1218 65.1877C64.1355 64.1981 64.1051 62.596 65.0529 61.5688C65.49 61.0952 66.021 60.72 66.6113 60.4678L67.2409 60.1988Z" fill="#F08418"/>
<path fill-rule="evenodd" clip-rule="evenodd" d="M95.2149 113.737L83.2062 113.315C77.7141 113.123 72.7853 109.838 70.6303 104.935C65.9231 94.2256 77.9077 83.1018 89.2514 87.0963C97.0308 84.9352 103.157 87.1473 107.894 95.0816C110.376 99.2387 110.255 104.333 107.58 108.268C104.905 112.204 100.135 113.91 95.2149 113.737Z" fill="#364513"/>
<path fill-rule="evenodd" clip-rule="evenodd" d="M87.7282 93.7366C89.4247 93.6834 91.7678 93.0099 90.4226 86.1454C88.7116 77.414 96.3187 73.3182 103.391 75.9396C107.849 77.5918 105.457 76.6747 109.46 75.9116C112.961 75.2444 117.131 78.8296 117.519 82.8401C117.825 86.0016 115.233 86.0344 116.625 89.1222C121.587 100.131 113.304 102.744 109.665 101.118C108.597 105.011 107.733 104.218 105.28 105.688C101.12 108.181 99.3852 113.871 94.0953 113.692C81.3972 113.264 77.7742 94.0491 87.7282 93.7366Z" fill="#E7CAC9"/>
<path fill-rule="evenodd" clip-rule="evenodd" d="M117.741 97.7643C116.368 101.438 112.036 102.175 109.669 101.118C108.602 105.011 107.737 104.218 105.284 105.688C101.124 108.18 99.3895 113.871 94.0995 113.692C89.1305 113.525 85.5514 110.48 83.6316 106.817C84.9303 106.851 86.2222 106.462 87.2994 105.667C89.1004 104.338 90.0036 102.092 89.644 99.8393L98.1306 82.178L98.2866 85.5866C98.4463 89.0747 99.3608 92.4992 100.965 95.6184C101.712 97.0709 103.03 98.1446 104.588 98.571C106.145 98.9974 107.797 98.7361 109.128 97.8526C110.274 97.0925 111.762 97.0754 112.952 97.8086C114.441 98.7262 116.303 98.709 117.741 97.7643Z" fill="#E1EDC5"/>
<path fill-rule="evenodd" clip-rule="evenodd" d="M88.4683 84.1927L88.1336 89.1984C87.5504 97.9188 89.3872 106.401 93.4414 113.71L98.473 113.903C104.898 114.151 114.291 113.398 120.633 111.462L121.42 108.886L110.105 107.331C106.246 105.54 104.352 105.081 99.5868 104.54L99.3704 87.621C107.342 75.5056 89.3955 70.3281 88.4683 84.1927Z" fill="#FF9933"/>
<path fill-rule="evenodd" clip-rule="evenodd" d="M99.3725 87.6209C98.7272 95.7588 97.6714 101.197 94.0901 107.32L94.9846 106.707C96.3926 105.742 97.9464 105.01 99.5889 104.54L99.3725 87.6209Z" fill="#F08418"/>
<path d="M91.0656 89.5667C92.6544 89.6279 94.5702 86.8791 95.3446 83.4272C96.1191 79.9753 95.4589 77.1274 93.8702 77.0663C92.2814 77.0052 90.3656 79.754 89.5912 83.2059C88.8167 86.6578 89.4769 89.5056 91.0656 89.5667Z" fill="#FFAA54"/>
<path fill-rule="evenodd" clip-rule="evenodd" d="M120.177 93.4698L143.125 91.3036C143.894 91.2311 144.323 91.8318 144.078 92.6386L138.468 111.136C138.224 111.943 137.395 112.662 136.626 112.735L113.677 114.901C112.908 114.974 112.479 114.373 112.724 113.566L118.334 95.0688C118.579 94.2618 119.408 93.5424 120.177 93.4698Z" fill="#364513"/>
<path d="M127.307 106.739C130.277 106.458 133.178 104.603 133.787 102.594C134.396 100.586 132.483 99.1849 129.513 99.4653C126.543 99.7456 123.641 101.601 123.032 103.61C122.423 105.618 124.337 107.019 127.307 106.739Z" fill="#47591E"/>
<path fill-rule="evenodd" clip-rule="evenodd" d="M141.336 100.812L139.125 101.384C138.551 101.532 137.121 102.092 136.9 102.919C136.565 104.175 137.663 105.93 138.12 106.827C138.582 107.733 139.287 108.299 140.118 108.433C141.078 108.587 142.143 107.661 142.647 106.236C143.098 104.961 143.494 103.662 143.831 102.348C144.387 100.182 143.317 99.3306 141.939 98.8239L141.336 100.812ZM109.426 65.9225C107.535 70.186 105.253 72.8305 101.723 75.4449C103.594 75.7626 104.906 79.0293 106.827 82.3466C108.855 85.8478 110.785 87.8419 111.496 91.3684C116.344 89.1129 114.295 79.322 111.143 75.8964C111.616 73.3457 112.927 70.8493 114.697 69.0997L109.426 65.9225Z" fill="#FF9933"/>
<path fill-rule="evenodd" clip-rule="evenodd" d="M111.138 75.8965C111.555 73.644 112.626 71.4339 114.09 69.743L108.838 67.6733C108.002 68.8253 107.662 70.2702 107.895 71.6794C108.129 73.0887 108.917 74.3425 110.079 75.1559L111.138 75.8965Z" fill="#F08418"/>
<path fill-rule="evenodd" clip-rule="evenodd" d="M115.114 50.302C126.151 52.9985 121.426 60.7788 121.704 65.3125C121.982 69.8462 117.028 74.7326 115.114 74.7326C113.201 74.7326 105.202 71.9013 106.199 62.5173C107.196 53.1333 110.329 49.1327 115.114 50.302Z" fill="#FF9933"/>
<path fill-rule="evenodd" clip-rule="evenodd" d="M122.447 57.1651C122.664 60.0008 121.566 63.0578 121.704 65.3122C121.976 69.7591 117.216 74.5446 115.228 74.7263C115.626 74.2382 115.893 73.6655 115.893 73.1203C115.893 71.9626 115.97 70.616 117.031 69.9255C117.875 69.3759 117.965 69.3576 117.743 68.3676C117.368 66.6943 117.518 64.9443 118.174 63.3616C119.065 61.2084 119.292 58.8331 118.824 56.5474L118.174 53.3711L120.887 54.3189L122.447 57.1651Z" fill="#F08418"/>
<path fill-rule="evenodd" clip-rule="evenodd" d="M117.335 55.2962L118.218 56.0209C121.157 58.434 122.86 62.0599 122.852 65.8868L126.741 62.4175L120.673 50.1032L116.701 48.9966L117.335 55.2962Z" fill="#1B210D"/>
<path fill-rule="evenodd" clip-rule="evenodd" d="M118.819 56.5476L116.272 58.2267C113.042 60.3557 110.864 63.7756 110.285 67.6283C109.75 71.1828 106.953 73.9513 103.425 74.4183C99.8979 74.8853 96.49 72.9382 95.0671 69.6429L103.792 48.1159L120.628 48.8565L118.819 56.5476Z" fill="#1B210D"/>
<path fill-rule="evenodd" clip-rule="evenodd" d="M117.159 63.362C115.804 61.851 113.287 60.3645 111.743 62.7933C114.167 61.912 115.057 62.2948 117.159 63.362ZM118.737 63.362C119.672 61.851 121.41 60.3645 122.476 62.7933C120.803 61.912 120.188 62.2948 118.737 63.362ZM111.332 65.1005C111.318 66.6752 113.011 67.7006 114.601 66.6087L111.332 65.1005Z" fill="#1B210D"/>
<path fill-rule="evenodd" clip-rule="evenodd" d="M116.141 65.5104C114.066 67.419 112.082 67.6019 111.091 64.4426C112.465 65.7303 114.373 66.0039 116.141 65.5104Z" fill="#E7CAC9"/>
<path fill-rule="evenodd" clip-rule="evenodd" d="M111.156 64.4547C113.095 62.9499 114.994 62.36 116.47 65.4306C114.789 65.4267 113.019 65.0825 111.156 64.4547Z" fill="#F08418"/>
<path fill-rule="evenodd" clip-rule="evenodd" d="M110.432 64.1363C112.103 65.8237 114.452 66.3988 116.699 65.3863C115.377 64.7475 113.085 64.4887 110.432 64.1363Z" fill="#1B210D"/>
<path fill-rule="evenodd" clip-rule="evenodd" d="M114.964 65.6452C114.923 66.051 114.504 66.4446 113.947 66.5697C113.316 66.7113 112.747 66.4548 112.676 65.9966C112.631 65.7096 112.793 65.4117 113.075 65.1942L114.964 65.6452Z" fill="#1B210D"/>
<path d="M112.89 66.1128C113.09 66.1128 113.252 66.0442 113.252 65.9595C113.252 65.8748 113.09 65.8062 112.89 65.8062C112.69 65.8062 112.528 65.8748 112.528 65.9595C112.528 66.0442 112.69 66.1128 112.89 66.1128Z" fill="#E7CAC9"/>
<path fill-rule="evenodd" clip-rule="evenodd" d="M121.218 65.2475C120.912 66.7968 119.799 67.7297 119.162 66.585L121.218 65.2475Z" fill="#1B210D"/>
<path fill-rule="evenodd" clip-rule="evenodd" d="M118.523 65.5104C119.309 67.419 120.409 67.6019 121.652 64.4426C120.588 65.7303 119.434 66.0039 118.523 65.5104Z" fill="#E7CAC9"/>
<path fill-rule="evenodd" clip-rule="evenodd" d="M121.612 64.4547C120.819 62.9499 119.854 62.36 118.352 65.4306C119.318 65.4267 120.408 65.0825 121.612 64.4547Z" fill="#D97109"/>
<path fill-rule="evenodd" clip-rule="evenodd" d="M122.087 64.1363C120.768 65.8237 119.296 66.3988 118.221 65.3863C119.486 64.8041 120.773 64.397 122.087 64.1363Z" fill="#1B210D"/>
<path fill-rule="evenodd" clip-rule="evenodd" d="M119.537 65.5578C119.333 65.9636 119.353 66.3573 119.602 66.4824C119.885 66.624 120.356 66.3674 120.654 65.9093C120.841 65.6223 120.915 65.3243 120.876 65.1069L119.537 65.5578Z" fill="#1B210D"/>
<path d="M119.434 66.3891C119.319 66.3891 119.241 66.3204 119.259 66.2358C119.277 66.1511 119.385 66.0825 119.5 66.0825C119.614 66.0825 119.693 66.1511 119.675 66.2358C119.657 66.3204 119.549 66.3891 119.434 66.3891Z" fill="#E7CAC9"/>
<path fill-rule="evenodd" clip-rule="evenodd" d="M114.42 70.9912C115.426 70.702 116.435 70.6189 117.38 70.7473C117.533 70.768 117.644 70.8712 117.673 71.0187C117.702 71.1661 117.645 71.3358 117.522 71.4651L117.364 71.7648C117.116 72.2387 116.663 72.608 116.161 72.7458C114.931 73.0839 114.382 72.0291 114.42 70.9912Z" fill="#1B210D"/>
<path fill-rule="evenodd" clip-rule="evenodd" d="M114.451 49.7125C107.964 47.1169 101.042 48.8167 100.095 56.5268C103.549 51.3253 107.752 47.8705 114.451 49.7125ZM124.764 55.5093L126.866 58.5198C129.324 62.0394 130.005 66.5629 128.699 70.6889L128.537 67.6731C128.305 63.3515 126.867 59.4849 124.764 55.5093Z" fill="#404A29"/>
<path fill-rule="evenodd" clip-rule="evenodd" d="M125.643 60.8508L126.9 63.8154C128.369 67.2815 127.909 70.9226 125.661 73.6107L126.246 71.2792C127.083 67.9383 126.665 64.5449 125.643 60.8508ZM114.771 56.6694C111.291 57.9221 107.848 61.564 108.772 67.8973L109.339 65.5579C110.15 62.2055 112.118 59.4218 114.771 56.6694Z" fill="#404A29"/>
<path fill-rule="evenodd" clip-rule="evenodd" d="M121.668 48.3035L123.819 51.3139C126.335 54.8335 127.032 59.357 125.695 63.4831L125.53 60.4673C125.292 56.1457 123.821 52.279 121.668 48.3035ZM98.9598 56.4586L97.5679 60.0671C95.9405 64.2861 92.4851 67.76 88.2722 69.4127L90.7369 67.3266C94.2686 64.3373 96.7512 60.6948 98.9598 56.4586Z" fill="#E7CAC9"/>
<path fill-rule="evenodd" clip-rule="evenodd" d="M104.057 60.9602C106.446 55.2302 109.282 52.3419 115.226 52.9174L112.807 53.8487C109.341 55.1834 106.636 57.7006 104.057 60.9602ZM100.659 66.3781C98.2664 72.1067 95.429 74.9934 89.4849 74.4145L91.9044 73.4846C95.3716 72.1519 98.0776 69.6362 100.659 66.3781Z" fill="#404A29"/>
<path fill-rule="evenodd" clip-rule="evenodd" d="M103.171 67.4585L101.523 69.4623C99.596 71.805 96.6594 73.2791 93.6228 73.4281L95.6349 72.6266C98.5182 71.4782 100.869 69.6873 103.171 67.4585Z" fill="#E7CAC9"/>
<path fill-rule="evenodd" clip-rule="evenodd" d="M101.239 58.9132C104.656 52.131 108.374 48.9844 115.999 50.9519C110.062 51.1851 106.79 52.8038 101.239 58.9132ZM109.168 59.1344C105.441 61.3958 103.726 63.6889 104.718 67.8331L105.121 66.0302C105.698 63.4465 107.17 61.2833 109.168 59.1344ZM123.403 52.8454C121.017 49.7416 119.346 48.5381 117.807 50.2185L118.779 50.2735C120.171 50.3525 121.695 51.3497 123.403 52.8454ZM124.114 55.308C122.162 52.7686 120.794 51.7839 119.536 53.1588L120.331 53.2038C121.47 53.2684 122.717 54.0843 124.114 55.308Z" fill="#404A29"/>
<path fill-rule="evenodd" clip-rule="evenodd" d="M102.44 56.1384L104.088 54.1347C106.014 51.792 108.951 50.3178 111.988 50.1689L109.976 50.9703C107.092 52.1188 104.741 53.9096 102.44 56.1384Z" fill="#E7CAC9"/>
<path fill-rule="evenodd" clip-rule="evenodd" d="M130.313 63.0464L130.938 65.012C132.415 69.7706 130.978 74.5711 126.292 77.1189C129.346 73.6118 131.395 69.3421 130.313 63.0464Z" fill="#1B210D"/>
<path fill-rule="evenodd" clip-rule="evenodd" d="M173.909 121.58C162.787 127.87 132.013 132.392 95.7878 132.392C50.1886 132.392 13.223 125.227 13.223 116.39C13.223 113.216 17.9902 110.258 26.2119 107.771C23.3338 109.398 21.7686 111.144 21.7686 112.961C21.7686 121.798 58.7342 128.963 104.333 128.963C133.558 128.963 159.236 126.02 173.909 121.58Z" fill="#6E9610"/>
<path fill-rule="evenodd" clip-rule="evenodd" d="M65.7185 116.934C72.7675 120.92 92.2703 123.786 115.228 123.786C144.127 123.786 167.554 119.245 167.554 113.644C167.554 111.633 164.533 109.759 159.322 108.182C161.146 109.213 162.138 110.32 162.138 111.471C162.138 117.072 138.711 121.612 109.812 121.612C91.2913 121.612 75.018 119.747 65.7185 116.934Z" fill="#B0DB4B"/>
<path d="M41.6009 113.488C43.3013 113.243 44.6797 112.561 44.6797 111.964C44.6797 111.366 43.3013 111.08 41.6009 111.325C39.9004 111.57 38.522 112.252 38.522 112.849C38.522 113.447 39.9004 113.732 41.6009 113.488Z" fill="#B0DB4B"/>
<path d="M29.6314 109.363C31.1756 109.141 32.4274 108.607 32.4274 108.169C32.4274 107.732 31.1756 107.558 29.6314 107.78C28.0872 108.002 26.8353 108.536 26.8353 108.974C26.8353 109.411 28.0872 109.586 29.6314 109.363Z" fill="#B0DB4B"/>
<path d="M170.601 116.146C171.833 116.281 172.832 116.045 172.832 115.618C172.832 115.192 171.833 114.737 170.601 114.603C169.37 114.468 168.371 114.704 168.371 115.13C168.371 115.556 169.37 116.011 170.601 116.146Z" fill="#B0DB4B"/>
<path d="M166.693 119.839C167.525 119.991 168.201 119.724 168.201 119.243C168.201 118.762 167.525 118.248 166.693 118.096C165.86 117.944 165.185 118.211 165.185 118.692C165.185 119.173 165.86 119.687 166.693 119.839Z" fill="#B0DB4B"/>
<path d="M154.126 115.119C154.959 115.26 155.634 115.013 155.634 114.569C155.634 114.124 154.959 113.65 154.126 113.509C153.294 113.369 152.618 113.615 152.618 114.06C152.618 114.504 153.294 114.979 154.126 115.119Z" fill="#B0DB4B"/>
<path d="M148.889 57.2526C149.895 57.2526 151.015 55.9022 151.389 54.2364C151.764 52.5706 151.252 51.2202 150.245 51.2202C149.239 51.2202 148.119 52.5706 147.745 54.2364C147.37 55.9022 147.882 57.2526 148.889 57.2526Z" fill="#E7CAC9"/>
<path d="M145.736 57.5966C146.33 57.5966 146.99 56.8006 147.21 55.8186C147.431 54.8367 147.129 54.0406 146.536 54.0406C145.943 54.0406 145.283 54.8367 145.062 55.8186C144.841 56.8006 145.143 57.5966 145.736 57.5966Z" fill="#E7CAC9"/>
<path d="M159.954 65.4246C160.547 65.4246 161.207 64.6286 161.428 63.6467C161.649 62.6647 161.347 61.8687 160.754 61.8687C160.161 61.8687 159.501 62.6647 159.28 63.6467C159.059 64.6286 159.361 65.4246 159.954 65.4246Z" fill="#E7CAC9"/>
<path d="M50.4851 45.182C51.0784 45.182 51.7383 44.386 51.9592 43.404C52.18 42.4221 51.8781 41.626 51.2849 41.626C50.6916 41.626 50.0317 42.4221 49.8108 43.404C49.59 44.386 49.8919 45.182 50.4851 45.182Z" fill="#E7CAC9"/>
<path d="M65.5696 45.1333C66.4515 45.1333 67.4325 43.95 67.7608 42.4903C68.089 41.0306 67.6402 39.8473 66.7584 39.8473C65.8765 39.8473 64.8955 41.0306 64.5672 42.4903C64.239 43.95 64.6878 45.1333 65.5696 45.1333Z" fill="#E7CAC9"/>
<path d="M80.7095 49.4947C81.0062 49.4947 81.3361 49.0967 81.4466 48.6057C81.557 48.1147 81.406 47.7166 81.1094 47.7166C80.8127 47.7166 80.4828 48.1147 80.3723 48.6057C80.2619 49.0967 80.4129 49.4947 80.7095 49.4947Z" fill="#E7CAC9"/>
<path d="M75.8738 63.9554C76.7557 63.9554 77.7367 62.7721 78.065 61.3125C78.3932 59.8528 77.9444 58.6695 77.0626 58.6695C76.1807 58.6695 75.1997 59.8528 74.8714 61.3125C74.5432 62.7721 74.992 63.9554 75.8738 63.9554Z" fill="#F5F0BF"/>
<path d="M155.918 82.3379C157.499 82.3379 159.257 80.2171 159.846 77.6009C160.434 74.9848 159.63 72.864 158.049 72.864C156.469 72.864 154.71 74.9848 154.122 77.6009C153.534 80.2171 154.338 82.3379 155.918 82.3379Z" fill="#F5F0BF"/>
<path d="M133.986 44.5845C134.777 44.5845 135.656 43.524 135.95 42.2159C136.244 40.9077 135.842 39.8473 135.052 39.8473C134.261 39.8473 133.382 40.9077 133.088 42.2159C132.794 43.524 133.196 44.5845 133.986 44.5845Z" fill="#F5F0BF"/>
<path d="M39.5179 83.1997C40.3082 83.1997 41.1873 82.1393 41.4815 80.8311C41.7757 79.523 41.3735 78.4625 40.5832 78.4625C39.7929 78.4625 38.9137 79.523 38.6196 80.8311C38.3254 82.1393 38.7276 83.1997 39.5179 83.1997Z" fill="#F5F0BF"/>
<path d="M66.8023 122.377C70.0197 121.642 72.6279 119.59 72.6279 117.795C72.6279 115.999 70.0197 115.14 66.8023 115.875C63.585 116.61 60.9768 118.662 60.9768 120.457C60.9768 122.253 63.585 123.112 66.8023 122.377Z" fill="#B0DB4B"/>
<path d="M56.399 119.646C57.948 119.293 59.2037 118.305 59.2038 117.44C59.2038 116.576 57.948 116.162 56.399 116.516C54.85 116.87 53.5942 117.858 53.5942 118.722C53.5942 119.587 54.8499 120 56.399 119.646Z" fill="#B0DB4B"/>
<path d="M145.724 120.731C143.074 120.125 140.925 118.436 140.925 116.957C140.925 115.478 143.074 114.77 145.724 115.375C148.374 115.981 150.522 117.671 150.522 119.15C150.523 120.629 148.374 121.337 145.724 120.731Z" fill="#B0DB4B"/>
<path d="M160.375 123.409C161.366 123.638 161.764 123.237 161.263 122.512C160.762 121.787 159.552 121.014 158.561 120.785C157.569 120.556 157.172 120.958 157.673 121.682C158.174 122.407 159.384 123.18 160.375 123.409Z" fill="#B0DB4B"/>
<path fill-rule="evenodd" clip-rule="evenodd" d="M112.437 27.1809L116.034 30.7051L124.438 28.0064L116.286 28.943L112.437 27.1809ZM107.159 29.8797L109.471 32.1446L114.872 30.4102L109.632 31.0121L107.159 29.8797ZM115.547 34.8645L117.859 37.1294L123.26 35.3951L118.021 35.997L115.547 34.8645Z" fill="#E7CAC9"/>
</svg>
