<svg width="45" height="125" viewBox="0 0 45 125" fill="none" xmlns="http://www.w3.org/2000/svg">
<path d="M15.5141 122.615C16.9578 123.543 18.8728 123.113 19.7915 121.654C20.1044 121.157 20.2258 120.739 20.3135 120.22C20.3522 119.99 20.3796 119.743 20.3999 119.465L20.4053 119.389C20.4374 118.913 20.4518 118.321 20.4514 117.603L20.4505 117.311L20.4482 117.024C20.4356 115.777 20.3862 114.205 20.3047 112.358L20.2878 111.98C20.1343 108.614 19.8827 104.482 19.6299 100.96C19.506 99.2349 18.0221 97.9381 16.3155 98.0632C14.6088 98.1884 13.3256 99.688 13.4494 101.413L13.5048 102.194L13.5461 102.791C13.7661 105.997 13.9755 109.543 14.1061 112.456L14.136 113.143L14.156 113.634C14.2186 115.21 14.2526 116.53 14.2546 117.535V117.717L14.2535 117.939C14.2502 118.369 14.2397 118.714 14.2229 118.963L14.2166 119.048C13.8135 120.364 14.3092 121.84 15.5141 122.615Z" fill="black"/>
<path d="M28.3627 118.655C29.8064 119.583 31.7214 119.153 32.6401 117.694C32.953 117.197 33.0745 116.779 33.1621 116.26C33.2009 116.03 33.2282 115.783 33.2485 115.505L33.2539 115.429C33.286 114.953 33.3004 114.361 33.3 113.643L33.2991 113.351L33.2968 113.064C33.2843 111.817 33.2349 110.245 33.1533 108.398L33.1364 108.02C32.983 104.654 32.7313 100.522 32.4785 96.9996C32.3547 95.2749 30.8708 93.9781 29.1641 94.1033C27.4574 94.2284 26.1742 95.728 26.2981 97.4528L26.3534 98.2339L26.3947 98.8309C26.6147 102.037 26.8241 105.583 26.9547 108.496L26.9846 109.183L27.0047 109.674C27.0672 111.25 27.1013 112.57 27.1033 113.575V113.757L27.1022 113.979C27.0988 114.409 27.0883 114.754 27.0715 115.003L27.0653 115.088C26.6621 116.404 27.1578 117.88 28.3627 118.655Z" fill="black"/>
<path d="M10.0691 81.4245L21.2657 82.4721V114.54H13.1553L10.0691 81.4245Z" fill="#2B2B2B"/>
<path d="M13.1677 114.448L12.8943 112.606H21.278V114.448H13.1677Z" fill="#1B1919"/>
<path d="M22.8534 89.6609C28.8071 89.6609 33.6335 87.1488 33.6335 84.0501C33.6335 80.9513 28.8071 78.4393 22.8534 78.4393C16.8997 78.4393 12.0732 80.9513 12.0732 84.0501C12.0732 87.1488 16.8997 89.6609 22.8534 89.6609Z" fill="#2B2B2B"/>
<path d="M23.01 82.5469H34.4842L34.3931 114.752H26.0817L23.01 82.5469Z" fill="#2B2B2B"/>
<path d="M25.925 114.724L25.6516 112.882H34.5821V114.724H25.925Z" fill="#1B1919"/>
<path d="M4.61715 123.051C4.44602 122.623 4.56918 122.037 4.66501 121.878C4.76084 121.718 16.3975 120.984 16.3975 120.984C18.3289 120.824 22.1573 120.155 22.4219 121.309C22.7492 122.736 22.7342 123.058 22.5111 124.163C22.1542 124.532 18.5436 124.854 17.3729 124.578C17.3729 123.933 17.2818 123.519 17.2818 123.519C17.2818 123.519 16.6292 123.937 15.8636 124.117C14.3022 124.486 14.0032 124.854 9.16667 124.854C5.28762 124.486 5.00025 124.008 4.61715 123.051Z" fill="#272727"/>
<path d="M17.2029 116.842C18.1728 116.855 19.6535 116.533 20.4604 115.403C20.5313 115.303 20.6763 115.287 20.7589 115.377C21.4845 116.165 21.0144 115.717 21.3059 117.073C21.5935 118.412 21.8365 118.221 22.1242 119.464C22.3233 120.325 22.9684 122.333 22.1242 122.333H18.2736C17.3626 122.333 16.1322 123.403 13.0984 123.703C8.06249 124.202 6.83188 123.519 5.82636 123.196C3.53849 122.463 4.69954 120.785 5.82636 120.249C7.47707 119.464 9.84281 118.874 11.0461 118.223C11.9832 117.717 12.305 117.559 12.7861 117.026C13.4001 116.346 13.6604 115.911 13.8553 115.573C13.9364 115.431 14.1567 115.463 14.2428 115.601C14.7747 116.453 16.3072 116.83 17.2029 116.842Z" fill="#563D2A"/>
<path d="M13.2972 116.331C13.0727 116.25 12.8764 116.506 13.0101 116.705L13.5861 117.565L12.4158 117.227C12.1909 117.162 12.0111 117.42 12.1477 117.612L12.6468 118.313L11.2129 118.02C10.9713 117.97 10.8152 118.27 10.9925 118.443L12.1765 119.6C12.2745 119.695 12.4306 119.693 12.5253 119.594C12.62 119.495 12.6173 119.337 12.5194 119.241L11.9424 118.678L13.1653 118.928C13.3851 118.973 13.5455 118.722 13.4146 118.538L12.9627 117.903L14.1033 118.233C14.3249 118.297 14.5046 118.046 14.3754 117.853L13.8412 117.056L15.0771 117.502C15.2377 117.56 15.4066 117.44 15.4066 117.267C15.4066 117.111 15.3375 116.967 15.2112 116.805L15.1665 116.749L15.1379 116.715C15.0934 116.663 15.0462 116.613 14.9515 116.517L14.7523 116.315L14.6907 116.251C14.6593 116.218 14.632 116.188 14.6056 116.159C14.5074 116.049 14.441 115.958 14.4045 115.883L14.3965 115.866C14.3412 115.74 14.1954 115.683 14.0709 115.739C13.9465 115.795 13.8904 115.943 13.9457 116.068C14.0056 116.204 14.1017 116.339 14.2394 116.493L14.2878 116.546L14.3291 116.59C14.3507 116.613 14.3738 116.637 14.3994 116.663L14.4993 116.764L13.2972 116.331Z" fill="#2C221B"/>
<path d="M6.31727 122.107C6.97758 122.309 7.42704 122.417 8.01217 122.48C8.80801 122.567 9.64928 122.527 10.5741 122.331C10.7465 122.295 10.857 122.124 10.8208 121.95C10.7847 121.775 10.6156 121.664 10.4432 121.7C9.58447 121.882 8.81043 121.919 8.0805 121.839C7.54325 121.781 7.12783 121.682 6.50243 121.49C6.33386 121.438 6.15577 121.535 6.10464 121.705C6.05351 121.875 6.14871 122.055 6.31727 122.107Z" fill="#7C593E"/>
<path d="M12.9036 119.375C13.7959 118.546 14.4594 118.131 15.1732 117.21C15.5598 117.21 16.0703 117.256 17.5425 117.256C19.4609 117.256 19.9694 116.428 20.8171 115.461C21.461 115.875 21.1294 116.75 21.5756 117.947C21.9325 118.905 22.6017 120.341 22.6017 122.091C22.2894 122.644 19.211 122.368 18.2295 122.368C18.0064 121.262 16.2667 120.341 15.4921 120.111C14.8122 119.91 14.019 119.835 12.9036 119.375Z" fill="#423023"/>
<path d="M42.8902 123.087C43.0614 122.659 42.9382 122.073 42.8424 121.913C42.7465 121.754 31.1099 121.02 31.1099 121.02C29.1785 120.861 25.35 120.19 25.0855 121.344C24.7582 122.772 24.7731 123.094 24.9962 124.199C25.3531 124.568 28.9637 124.89 30.1344 124.614C30.1344 123.969 30.2256 123.555 30.2256 123.555C30.2256 123.555 30.8781 123.973 31.6437 124.153C33.2052 124.521 33.5042 124.89 38.3407 124.89C42.2197 124.521 42.5071 124.044 42.8902 123.087Z" fill="#272727"/>
<path d="M30.3031 116.878C29.3331 116.891 27.8524 116.568 27.0455 115.438C26.9746 115.339 26.8296 115.323 26.747 115.413C26.0214 116.201 26.4915 115.752 26.2 117.109C25.9124 118.448 25.6695 118.257 25.3818 119.5C25.1826 120.361 24.5375 122.369 25.3818 122.369H29.2323C30.1433 122.369 31.3737 123.439 34.4075 123.739C39.4435 124.238 40.6741 123.555 41.6796 123.232C43.9674 122.499 42.8064 120.822 41.6796 120.285C40.0289 119.5 37.6631 118.91 36.4598 118.259C35.5227 117.753 35.2009 117.595 34.7199 117.062C34.1058 116.382 33.8455 115.948 33.6507 115.609C33.5695 115.468 33.3492 115.499 33.2631 115.637C32.7312 116.489 31.1987 116.867 30.3031 116.878Z" fill="#563D2A"/>
<path d="M33.1336 117.889C33.0043 118.082 33.184 118.333 33.4056 118.269L34.5463 117.939L34.0944 118.574C33.9634 118.758 34.1237 119.009 34.3435 118.964L35.5664 118.714L34.9896 119.277C34.8916 119.373 34.8889 119.531 34.9836 119.63C35.0782 119.729 35.2344 119.731 35.3324 119.636L36.5164 118.48C36.6937 118.307 36.5378 118.007 36.2961 118.056L34.8619 118.349L35.3612 117.648C35.4978 117.456 35.3181 117.198 35.0932 117.263L33.9228 117.601L34.4989 116.741C34.6326 116.542 34.4363 116.286 34.2117 116.367L33.0097 116.8L33.1096 116.699L33.1549 116.652C33.1977 116.607 33.2339 116.569 33.2696 116.529C33.4072 116.374 33.5034 116.24 33.5632 116.104C33.6185 115.978 33.5625 115.831 33.438 115.775C33.3183 115.721 33.1789 115.772 33.1192 115.887L33.1124 115.902C33.0779 115.98 33.0091 116.076 32.9033 116.195L32.8598 116.242L32.8119 116.293C32.7892 116.317 32.7643 116.343 32.7361 116.371L32.5141 116.597L32.4589 116.654C32.3993 116.717 32.3657 116.756 32.3193 116.814C32.1794 116.987 32.1023 117.139 32.1023 117.303C32.1023 117.476 32.2712 117.596 32.4319 117.538L33.6677 117.092L33.1336 117.889Z" fill="#2C221B"/>
<path d="M41.0062 121.527L40.8749 121.566L40.7391 121.606C40.2527 121.747 39.885 121.826 39.4279 121.875C38.6978 121.955 37.9238 121.918 37.0651 121.736C36.8927 121.7 36.7237 121.811 36.6875 121.985C36.6514 122.16 36.7618 122.331 36.9342 122.367C37.859 122.563 38.7002 122.603 39.4962 122.516C40.0808 122.453 40.5284 122.346 41.1908 122.144C41.3594 122.092 41.4548 121.912 41.4038 121.742C41.3529 121.572 41.1748 121.475 41.0062 121.527Z" fill="#7C593E"/>
<path d="M34.6036 119.411C33.7114 118.582 33.0478 118.167 32.334 117.246C31.9473 117.246 31.4369 117.292 29.9647 117.292C28.0463 117.292 27.5377 116.464 26.6901 115.497C26.0462 115.911 26.3778 116.786 25.9316 117.983C25.5748 118.941 24.9055 120.378 24.9055 122.127C25.2178 122.68 28.2962 122.404 29.2776 122.404C29.5007 121.298 31.2404 120.378 32.015 120.147C32.6949 119.946 33.4883 119.871 34.6036 119.411Z" fill="#423023"/>
<path d="M9.09015 79.2638L9.0755 79.2013C9.01248 78.9211 8.95538 78.5209 8.9152 78.0227L8.90543 77.8953L8.89646 77.7649C8.80774 76.4017 8.84457 74.5615 8.99899 72.3594C9.27426 68.4341 9.91174 63.5484 10.6328 59.3006C10.9476 57.4458 9.715 55.6843 7.87966 55.3661C6.04431 55.0479 4.30124 56.2936 3.98641 58.1484L3.91583 58.5676C3.18944 62.9185 2.5563 67.8294 2.27241 71.8776L2.25511 72.1297L2.23845 72.3833C2.08203 74.8232 2.05895 76.9016 2.19403 78.5764C2.28235 79.6713 2.43867 80.6154 2.69056 81.4325C3.07823 82.6901 3.69167 83.715 4.76212 84.4223C6.32068 85.4522 8.41026 85.0102 9.42932 83.4351C10.2918 82.102 10.111 80.3845 9.09015 79.2638Z" fill="#EBBAAA"/>
<path d="M33.0799 58.1206C34.7001 61.023 35.7781 65.4857 36.1476 70.3855C36.4614 74.5467 36.1933 78.5273 35.6244 80.1726L35.6071 80.2217C34.9707 81.9903 35.8735 83.9454 37.6235 84.5885C39.3735 85.2316 41.3081 84.3193 41.9445 82.5507C42.9179 79.8454 43.255 74.9513 42.8716 69.8676C42.4335 64.0587 41.1339 58.6787 38.9533 54.7722C38.0384 53.1332 35.9819 52.554 34.36 53.4786C32.7381 54.4032 32.165 56.4815 33.0799 58.1206Z" fill="#EBBAAA"/>
<path d="M7.06299 50.3048C7.06299 48.1406 11.7561 45.9319 15.0367 44.8815L19.3197 43.4454C19.9161 43.4264 24.0143 43.5986 24.6051 43.6811L31.2574 45.9319C34.4096 46.3723 36.997 48.0719 36.6795 51.2718L35.5448 65.0212L35.8594 83.1359C35.8659 83.303 28.5522 81.2105 28.3869 81.202L15.629 83.438L8.83998 83.1295C8.68124 83.1209 8.59901 82.6517 8.61216 82.4913L9.52417 63.3249L7.06299 50.3048Z" fill="#EBBAAA"/>
<path d="M37.6012 48.1392C36.863 47.2926 34.4317 46.4368 33.3083 46.1148C34.0171 56.9726 34.0947 78.0902 34.3515 79.1944C34.6724 80.5746 42.3755 82.0008 43.0174 81.4487C43.6594 80.8966 44.3815 75.6977 44.221 72.8452C44.0605 69.9928 38.524 49.1973 37.6012 48.1392Z" fill="#322B1F"/>
<path d="M42.9349 81.4784C43.3358 81.4047 44.2562 78.777 44.5752 77.7486L33.3665 75.9528C33.2298 76.8891 32.9746 78.9182 33.0475 79.5444C33.1386 80.3272 35.2346 81.0179 37.5128 81.3863C39.791 81.7546 42.4337 81.5705 42.9349 81.4784Z" fill="#3F3627"/>
<path d="M6.78231 47.7707C7.56711 46.9241 10.1518 46.0683 11.3461 45.7462C10.5926 56.6048 9.01731 78.5979 8.74433 79.7022C8.40311 81.0825 2.91581 81.9383 2.23337 81.3862C1.55092 80.8341 0.783174 75.6348 0.953786 72.7821C1.1244 69.9295 5.80129 48.829 6.78231 47.7707Z" fill="#322B1F"/>
<path d="M2.01625 81.7191C1.62365 81.6459 0.722453 79.035 0.410156 78.0132L11.3851 76.2289C11.519 77.1592 11.7688 79.1753 11.6974 79.7975C11.6082 80.5753 9.55592 81.2616 7.32528 81.6276C5.09459 81.9936 2.507 81.8107 2.01625 81.7191Z" fill="#3F3627"/>
<path d="M18.0883 43.9211L18.4072 43.6909L23.1459 45.2104L25.3785 43.783L26.2442 44.1514L27.1555 47.0523L21.8245 48.2495L17.5415 46.776L18.0883 43.9211Z" fill="#EBBAAA"/>
<path d="M20.9851 51.862C20.5467 50.5281 20.7658 48.5963 20.7658 48.5963L18.793 49.3783L16.4255 44.549C13.6928 45.0549 13.5758 45.2388 11.6029 46.1588C9.24948 47.256 9.71776 50.9421 9.36702 55.9553L8.88477 83.4134L15.3733 84.4713L19.7137 84.5173L21.6427 53.3798C21.6427 53.3798 21.4235 53.1958 20.9851 51.862Z" fill="#E5EBF9"/>
<path d="M22.4134 51.8164C21.3229 50.8505 21.5047 50.0839 21.7003 49.3327L22.1617 48.9648L24.8461 48.6888L27.4467 44.8254C27.4467 44.8254 31.1796 45.3774 32.4379 46.1133C33.6962 46.8491 34.4512 54.8979 34.4512 54.8979L35.0384 83.5516H28.4772L21.0712 82.2151C20.9594 72.5873 19.9837 54.1495 21.0712 53.5182C22.4973 52.6903 22.6651 52.0393 22.4134 51.8164Z" fill="#DAE2F3"/>
<path d="M25.38 51.7322C25.6316 51.7322 25.8356 51.5261 25.8356 51.2718C25.8356 51.0175 25.6316 50.8113 25.38 50.8113C25.1283 50.8113 24.9243 51.0175 24.9243 51.2718C24.9243 51.5261 25.1283 51.7322 25.38 51.7322Z" fill="#DAE2F3"/>
<path d="M18.3619 51.2718C18.6135 51.2718 18.8175 51.0657 18.8175 50.8114C18.8175 50.557 18.6135 50.3509 18.3619 50.3509C18.1102 50.3509 17.9062 50.557 17.9062 50.8114C17.9062 51.0657 18.1102 51.2718 18.3619 51.2718Z" fill="#E5EBF9"/>
<path d="M22.0519 55.8766C22.4293 55.8766 22.7353 55.5674 22.7353 55.1859C22.7353 54.8045 22.4293 54.4952 22.0519 54.4952C21.6744 54.4952 21.3684 54.8045 21.3684 55.1859C21.3684 55.5674 21.6744 55.8766 22.0519 55.8766Z" fill="#EDF2FF"/>
<path d="M42.204 80.6495C42.5814 80.6495 42.8874 80.3403 42.8874 79.9588C42.8874 79.5774 42.5814 79.2681 42.204 79.2681C41.8265 79.2681 41.5205 79.5774 41.5205 79.9588C41.5205 80.3403 41.8265 80.6495 42.204 80.6495Z" fill="#332918"/>
<path d="M3.09947 80.7416C3.47694 80.7416 3.78293 80.4324 3.78293 80.0509C3.78293 79.6694 3.47694 79.3602 3.09947 79.3602C2.72201 79.3602 2.41602 79.6694 2.41602 80.0509C2.41602 80.4324 2.72201 80.7416 3.09947 80.7416Z" fill="#332918"/>
<path d="M21.505 62.5071C21.8825 62.5071 22.1884 62.1773 22.1884 61.7704C22.1884 61.3635 21.8825 61.0336 21.505 61.0336C21.1275 61.0336 20.8215 61.3635 20.8215 61.7704C20.8215 62.1773 21.1275 62.5071 21.505 62.5071Z" fill="#EDF2FF"/>
<path d="M21.1424 69.0459C21.5199 69.0459 21.8259 68.7366 21.8259 68.3552C21.8259 67.9737 21.5199 67.6645 21.1424 67.6645C20.765 67.6645 20.459 67.9737 20.459 68.3552C20.459 68.7366 20.765 69.0459 21.1424 69.0459Z" fill="#EDF2FF"/>
<path d="M25.6522 45.9766C25.9656 44.9289 25.6522 44.1808 25.5611 43.7203L28.1127 44.6873C28.1127 44.6873 28.9784 45.7924 28.4316 48.3249C27.8327 51.0994 25.1836 52.1928 24.5587 52.9296C24.2853 53.2519 24.3765 49.338 22.2805 48.9236C23.2374 48.6933 25.0599 47.9566 25.6522 45.9766Z" fill="#E5EBF9"/>
<path d="M18.366 46.6212C17.7233 45.7003 18.0567 44.4086 18.366 43.7203L16.1286 44.5031C16.1286 44.5031 14.842 46.7417 15.5375 48.9052C16.402 51.5942 19.4815 52.5659 19.4548 52.2389C19.1814 48.9052 20.2739 49.0295 20.7305 48.6012C19.956 48.417 19.22 47.845 18.366 46.6212Z" fill="#DAE2F3"/>
<path d="M20.1549 56.317C19.496 53.4815 18.9874 48.3924 17.2938 44.1807C17.2938 44.1807 15.5364 44.3649 13.8614 44.8147C12.1863 45.2644 10.2129 46.0827 10.2129 46.0827C9.14654 47.7418 9.23703 52.2556 8.93594 61.7511C8.63485 71.2466 8.10416 80.7518 7.79053 85.0273C9.10781 85.4581 17.6807 87.4302 22.0089 85.8987C22.0089 84.7936 22.3901 83.7401 22.4352 82.4914C22.5824 78.4141 22.0809 74.5324 22.0089 67.6441C21.9453 61.5662 21.1232 60.4831 20.1549 56.317Z" fill="#483E2D"/>
<path d="M12.5293 46.1708L17.2679 43.9964C17.997 46.1708 18.7383 48.6767 19.5461 51.3253C20.4574 54.313 22.0066 59.9325 22.0066 70.8875L12.5293 52.8706L15.6276 49.4302L12.5293 50.6977V46.1708Z" fill="#5A4D37"/>
<path d="M25.9946 57.4314C25.9946 54.6436 26.1926 48.1235 27.8754 44.0886L32.6201 45.0693C33.893 45.3324 34.9816 46.1421 35.0811 47.4514C35.291 50.2121 34.8368 55.2586 35.0616 62.0943C35.3607 71.1912 35.6378 80.6869 35.9494 84.7829C33.3086 85.8549 27.228 87.4114 22.9277 85.9442C22.9277 84.9909 22.609 84.4256 22.1992 82.6391C22.1806 79.4362 21.9569 75.9497 22.0171 70.4015C22.0802 64.5788 25.9946 60.2192 25.9946 57.4314Z" fill="#483E2D"/>
<path d="M31.5755 45.6928L27.7481 44.0886C27.2621 45.871 26.0955 49.5915 25.2877 52.1987C24.3764 55.1397 22.3716 58.1699 22.3716 68.9536L31.5755 52.4661L28.4771 49.0795L31.5755 50.3271V45.6928Z" fill="#5A4D37"/>
<path d="M20.8696 74.4792C21.2973 74.4792 21.6441 74.1287 21.6441 73.6964C21.6441 73.2641 21.2973 72.9136 20.8696 72.9136C20.4418 72.9136 20.095 73.2641 20.095 73.6964C20.095 74.1287 20.4418 74.4792 20.8696 74.4792Z" fill="#332918"/>
<path d="M20.8696 80.4654C21.2973 80.4654 21.6441 80.1149 21.6441 79.6826C21.6441 79.2502 21.2973 78.8998 20.8696 78.8998C20.4418 78.8998 20.095 79.2502 20.095 79.6826C20.095 80.1149 20.4418 80.4654 20.8696 80.4654Z" fill="#332918"/>
<path d="M22.088 38.2866H21.859C19.951 38.2866 18.4043 39.8497 18.4043 41.7779V45.7113C18.4043 47.6395 19.951 49.2026 21.859 49.2026H22.088C23.996 49.2026 25.5428 47.6395 25.5428 45.7113V41.7779C25.5428 39.8497 23.996 38.2866 22.088 38.2866Z" fill="#EBBAAA"/>
<path d="M34.9717 32.1657C37.9545 32.1657 40.3724 29.7221 40.3724 26.7078C40.3724 23.6934 37.9545 21.2497 34.9717 21.2497C31.9889 21.2497 29.5708 23.6934 29.5708 26.7078C29.5708 29.7221 31.9889 32.1657 34.9717 32.1657Z" fill="#EBBAAA"/>
<path d="M9.54685 32.4419C6.56403 32.4419 4.146 29.9983 4.146 26.9839C4.146 23.9695 6.56403 21.5258 9.54685 21.5258C12.5296 21.5258 14.9476 23.9695 14.9476 26.9839C14.9476 29.9983 12.5296 32.4419 9.54685 32.4419Z" fill="#EBBAAA"/>
<path d="M7.88184 16.5989C7.88184 8.79172 14.1445 2.46271 21.87 2.46271C29.5954 2.46271 35.8581 8.79172 35.8581 16.5989V23.2757L35.6334 30.6035C35.4032 38.1177 29.309 44.0886 21.87 44.0886C14.6829 44.0886 8.74395 38.4222 8.33122 31.171L7.88184 23.2757V16.5989Z" fill="#F4D4C9"/>
<path d="M19.0239 36.0518C20.809 37.054 22.9158 37.0281 25.1891 36.0882C25.5477 35.94 25.7196 35.5259 25.5728 35.1635C25.4261 34.801 25.0164 34.6274 24.6577 34.7757C22.7506 35.5641 21.0815 35.5847 19.7054 34.8121C19.3666 34.6219 18.9395 34.7453 18.7513 35.0876C18.5631 35.4299 18.6851 35.8616 19.0239 36.0518Z" fill="#C99584"/>
<path d="M26.5193 24.9333V26.5909C26.5193 27.2013 27.0089 27.6961 27.6128 27.6961C28.2168 27.6961 28.7064 27.2013 28.7064 26.5909V24.9333C28.7064 24.3229 28.2168 23.8282 27.6128 23.8282C27.0089 23.8282 26.5193 24.3229 26.5193 24.9333Z" fill="black"/>
<path d="M14.7622 24.9333V26.5909C14.7622 27.2013 15.2518 27.6961 15.8557 27.6961C16.4597 27.6961 16.9493 27.2013 16.9493 26.5909V24.9333C16.9493 24.3229 16.4597 23.8282 15.8557 23.8282C15.2518 23.8282 14.7622 24.3229 14.7622 24.9333Z" fill="black"/>
<path d="M26.2792 20.6642L31.497 20.4338C32.1004 20.4072 32.5681 19.8913 32.5418 19.2815C32.5154 18.6717 32.0049 18.199 31.4015 18.2257L26.1838 18.4561C25.5804 18.4827 25.1126 18.9986 25.139 19.6084C25.1654 20.2182 25.6759 20.6909 26.2792 20.6642Z" fill="#393939"/>
<path d="M17.9946 18.4524L12.7721 18.4062C12.1682 18.4009 11.6743 18.8913 11.669 19.5016C11.6637 20.1119 12.149 20.611 12.7529 20.6163L17.9755 20.6626C18.5794 20.6679 19.0733 20.1775 19.0786 19.5672C19.0838 18.9569 18.5986 18.4578 17.9946 18.4524Z" fill="#393939"/>
<path d="M21.0705 27.4021C20.5172 28.3887 20.1947 29.467 20.2363 30.3468C20.2934 31.5553 21.044 32.3678 22.3079 32.3678V30.8022C21.9131 30.8022 21.8031 30.6831 21.7837 30.2721C21.7578 29.7258 21.9977 28.9241 22.4183 28.174L21.0705 27.4021Z" fill="#EBBAAA"/>
<path d="M22.9725 24.6709C22.6736 23.5418 23.4773 22.4205 24.6321 22.3557L31.072 21.9946C32.2268 21.9297 33.1484 22.9543 32.9749 24.1097L32.598 26.6212C32.4685 27.4834 31.7586 28.1357 30.897 28.184L25.4837 28.4877C24.6222 28.536 23.8452 27.9671 23.6222 27.1248L22.9725 24.6709Z" fill="white" fill-opacity="0.29"/>
<path d="M22.6061 25.4194C22.664 25.719 22.9511 25.9144 23.2475 25.8559C23.5439 25.7974 23.7373 25.5073 23.6794 25.2078L22.6061 25.4194ZM22.939 24.2586L23.4756 24.1527L23.4718 24.1329L23.4666 24.1135L22.939 24.2586ZM24.271 22.5268L24.2598 21.9744L24.235 21.9748L24.2103 21.9776L24.271 22.5268ZM31.423 22.3783L31.4797 21.8287L31.4459 21.8252L31.4118 21.8258L31.423 22.3783ZM32.8652 23.8221L33.4079 23.8891L33.4085 23.8842L33.409 23.8794L32.8652 23.8221ZM32.1664 25.0481C32.1299 25.351 32.3432 25.6265 32.6429 25.6634C32.9427 25.7004 33.2154 25.4848 33.2519 25.1819L32.1664 25.0481ZM23.6794 25.2078L23.4756 24.1527L22.4023 24.3644L22.6061 25.4194L23.6794 25.2078ZM23.4666 24.1135C23.4678 24.1179 23.4524 24.0431 23.4789 23.9195C23.5032 23.8059 23.5613 23.6606 23.6915 23.511L22.8705 22.7811C22.3495 23.3797 22.3171 24.0531 22.4114 24.4035L23.4666 24.1135ZM23.6915 23.511C23.8413 23.3388 23.9944 23.229 24.1186 23.1617C24.2506 23.0903 24.3331 23.0758 24.3317 23.0759L24.2103 21.9776C23.8996 22.0127 23.3461 22.2345 22.8705 22.7811L23.6915 23.511ZM24.2822 23.0792L31.4343 22.9308L31.4118 21.8258L24.2598 21.9744L24.2822 23.0792ZM31.3664 22.9279C31.4345 22.935 31.5818 22.9654 31.7381 23.0335C31.896 23.1023 32.0199 23.1908 32.093 23.2882L32.964 22.62C32.7373 22.3183 32.4302 22.1317 32.1712 22.0188C31.9106 21.9052 31.6552 21.8472 31.4797 21.8287L31.3664 22.9279ZM32.093 23.2882C32.2054 23.4378 32.2641 23.5683 32.2934 23.6607C32.3263 23.764 32.3176 23.8016 32.3213 23.7649L33.409 23.8794C33.439 23.5879 33.3287 23.1055 32.964 22.62L32.093 23.2882ZM32.3224 23.7553L32.1664 25.0481L33.2519 25.1819L33.4079 23.8891L32.3224 23.7553Z" fill="black"/>
<path d="M10.6966 24.0222C10.5433 22.8638 11.4827 21.8558 12.6361 21.9411L19.0687 22.4166C20.2221 22.5019 21.0064 23.6373 20.6878 24.7609L19.9956 27.2028C19.7579 28.0411 18.9711 28.5962 18.1105 28.5325L12.7033 28.1328C11.8427 28.0691 11.1442 27.4043 11.0299 26.5399L10.6966 24.0222Z" fill="white" fill-opacity="0.29"/>
<path d="M10.3461 25.2399C10.3943 25.5411 10.675 25.746 10.973 25.6972C11.2712 25.6485 11.4738 25.3649 11.4256 25.0636L10.3461 25.2399ZM10.7161 24.0906L11.2559 24.0024L11.2527 23.9826L11.2481 23.9629L10.7161 24.0906ZM12.103 22.4035L12.1096 21.851L12.0848 21.8506L12.0601 21.8526L12.103 22.4035ZM19.2561 22.4898L19.3304 21.9423L19.2966 21.9377L19.2626 21.9373L19.2561 22.4898ZM20.6511 23.9803L21.1914 24.0649L21.1921 24.0601L21.1927 24.0553L20.6511 23.9803ZM19.9132 25.1825C19.867 25.4841 20.0714 25.7665 20.3698 25.8133C20.6682 25.8601 20.9476 25.6535 20.9939 25.3519L19.9132 25.1825ZM11.4256 25.0636L11.2559 24.0024L10.1763 24.1787L10.3461 25.2399L11.4256 25.0636ZM11.2481 23.9629C11.2491 23.9674 11.2361 23.892 11.2666 23.7695C11.2946 23.6567 11.3573 23.5134 11.4923 23.3681L10.695 22.6118C10.1551 23.1929 10.1011 23.8649 10.1841 24.2181L11.2481 23.9629ZM11.4923 23.3681C11.6476 23.201 11.8041 23.0962 11.9303 23.0331C12.0645 22.966 12.1475 22.9542 12.146 22.9543L12.0601 21.8526C11.7483 21.8775 11.1881 22.081 10.695 22.6118L11.4923 23.3681ZM12.0965 22.956L19.2495 23.0423L19.2626 21.9373L12.1096 21.851L12.0965 22.956ZM19.1817 23.0372C19.2496 23.0466 19.3959 23.0818 19.55 23.155C19.7055 23.229 19.8265 23.3214 19.8964 23.4212L20.7884 22.782C20.5716 22.473 20.2707 22.2764 20.0155 22.1551C19.7587 22.033 19.5051 21.9666 19.3304 21.9423L19.1817 23.0372ZM19.8964 23.4212C20.004 23.5745 20.0584 23.7067 20.0848 23.8001C20.1143 23.9044 20.1044 23.9418 20.1093 23.9051L21.1927 24.0553C21.2321 23.765 21.1374 23.2792 20.7884 22.782L19.8964 23.4212ZM20.1107 23.8955L19.9132 25.1825L20.9939 25.3519L21.1914 24.0649L20.1107 23.8955Z" fill="black"/>
<path d="M20.595 24.5188C20.9898 24.304 22.0075 24.0031 22.9187 24.5188" stroke="black" stroke-width="10"/>
<path d="M31.8479 11.81C31.5654 9.41426 31.3105 7.694 31.1221 6.09684C30.9888 4.96552 30.975 4.67697 34.1572 7.04749C37.3396 9.41803 37.8167 14.6188 36.951 19.0392L35.6297 24.2885L34.647 24.0431L35.0373 17.3816C33.4339 15.7505 32.1304 14.2058 31.8479 11.81Z" fill="#6E6C6C"/>
<path d="M9.59792 14.3655C9.72933 11.9567 9.46079 12.0808 9.54844 10.4749C9.6105 9.33735 9.99834 9.58628 7.98902 11.6721C6.88004 12.8232 7.29757 17.7692 7.53364 21.0038L7.81417 23.9852L8.2624 24.0101L8.46476 20.3018C9.25688 17.7322 9.46646 16.7744 9.59792 14.3655Z" fill="#6E6C6C"/>
<path fill-rule="evenodd" clip-rule="evenodd" d="M22.3421 0.536377H22.342C22.3353 0.536377 22.3285 0.536377 22.3218 0.536377C22.315 0.536377 22.3083 0.536377 22.3017 0.536377H22.3016C18.0039 0.551465 7.71361 2.95957 7.3269 14.2292C8.46958 12.841 10.2344 12.2355 11.8019 11.3296C15.1016 9.4226 17.796 8.72445 21.3711 8.72445C24.4433 8.72445 28.2115 9.42729 30.7565 10.6589C33.033 11.7606 35.0513 12.5871 37.2764 14.2292C36.8897 2.9596 26.6395 0.551465 22.3421 0.536377Z" fill="#272727"/>
<path d="M11.1507 3.94704L10.2688 7.11338L21.8952 5.29377L35.1821 7.74843L35.1542 6.4456L34.2063 6.04747L34.1843 5.02382L32.9895 5.05007L32.9555 3.46807L31.4194 3.50181L31.0519 2.29955L29.6865 2.32954L28.8498 1.13759L27.4497 1.54075L27.0069 0.805658L25.5561 0.837531L25.5381 0L23.5932 0.880649L23.0631 0.0543651L22.2278 0.910635L21.3563 0.0918579L19.7528 0.965006L18.7108 0.149972L17.6193 1.01187L16.8512 1.02874L16.0139 1.79196L15.6565 1.05499L14.2397 2.66885L13.293 2.31724L12.0945 4.15907L11.1507 3.94704Z" fill="#272727"/>
<mask id="mask0_348_2434" style="mask-type:luminance" maskUnits="userSpaceOnUse" x="9" y="2" width="26" height="9">
<path d="M10.2009 6.17245L9.01147 3.91186L20.9453 4.82572L34.2323 2.37106L34.2042 3.67388L33.2565 4.07203L33.2344 5.09567L32.0397 5.06943L32.0057 6.65142L30.4695 6.61768L30.1021 7.81994L28.7366 7.78995L27.8999 8.98191L26.4997 8.57874L26.057 9.31386L24.6062 9.282L24.5882 10.1195L22.6434 9.23881L22.1133 10.0652L21.2779 9.20888L20.4065 10.0277L18.803 9.15445L17.7609 9.96956L16.6695 9.10767L15.9014 9.09072L15.064 8.32753L14.7066 9.06448L13.2899 7.45064L12.343 7.80225L11.1446 5.96043L10.2009 6.17245Z" fill="#272727"/>
</mask>
<g mask="url(#mask0_348_2434)">
<path d="M30.5829 4.94901H16.3564V14.7192H30.5829V4.94901Z" fill="#272727"/>
</g>
</svg>
