<svg width="172" height="172" viewBox="0 0 172 172" fill="none" xmlns="http://www.w3.org/2000/svg">
<path d="M164.833 169.611H8.44065C7.38954 169.611 6.52954 168.751 6.52954 167.7V160.215C6.52954 159.164 7.38954 158.304 8.44065 158.304H164.833C165.884 158.304 166.744 159.164 166.744 160.215V167.7C166.744 168.751 165.884 169.611 164.833 169.611Z" fill="#F7F7F7"/>
<path d="M87.9111 161.011C117.289 161.011 141.104 137.196 141.104 107.819C141.104 78.4411 117.289 54.6259 87.9111 54.6259C58.5337 54.6259 34.7185 78.4411 34.7185 107.819C34.7185 137.196 58.5337 161.011 87.9111 161.011Z" fill="#F3FAFF"/>
<path d="M153.845 145.388C154.975 142.505 156.122 139.304 155.055 136.406C154.8 135.705 154.402 134.956 154.641 134.24C154.959 133.268 156.233 132.934 156.647 132.01C157.125 130.991 156.377 129.812 156.568 128.713C156.759 127.598 157.858 126.866 158.925 126.468C159.992 126.07 161.155 125.815 162.015 125.082C163.655 123.649 163.464 121.085 163.097 118.919C162.731 116.769 162.46 114.221 164.037 112.708C161.139 113.265 158.176 113.838 155.66 115.367C153.144 116.896 151.137 119.604 151.28 122.55C151.36 124.031 151.933 125.608 151.265 126.914C150.532 128.331 148.573 128.888 148.079 130.401C147.506 132.137 149.21 133.73 149.879 135.434C150.516 137.043 150.213 138.842 150.357 140.546C150.5 142.266 151.392 144.209 153.096 144.464L153.845 145.388Z" fill="#FFBE55"/>
<path opacity="0.31" d="M153.845 145.388C154.975 142.505 156.122 139.304 155.055 136.406C154.8 135.705 154.402 134.956 154.641 134.24C154.959 133.268 156.233 132.934 156.647 132.01C157.125 130.991 156.377 129.812 156.568 128.713C156.759 127.598 157.858 126.866 158.925 126.468C159.992 126.07 161.155 125.815 162.015 125.082C163.655 123.649 163.464 121.085 163.097 118.919C162.731 116.769 162.46 114.221 164.037 112.708C161.139 113.265 158.176 113.838 155.66 115.367C153.144 116.896 151.137 119.604 151.28 122.55C151.36 124.031 151.933 125.608 151.265 126.914C150.532 128.331 148.573 128.888 148.079 130.401C147.506 132.137 149.21 133.73 149.879 135.434C150.516 137.043 150.213 138.842 150.357 140.546C150.5 142.266 151.392 144.209 153.096 144.464L153.845 145.388Z" fill="white"/>
<path d="M152.682 141.613C152.65 133.236 154.274 115.702 163.941 112.771" stroke="white" stroke-width="0.75" stroke-miterlimit="10" stroke-linecap="round"/>
<path d="M147.108 144.687C145.388 141.47 143.604 137.887 144.448 134.335C144.655 133.475 145.006 132.551 144.639 131.739C144.146 130.656 142.601 130.417 141.98 129.398C141.295 128.283 141.996 126.786 141.613 125.528C141.231 124.238 139.846 123.553 138.556 123.219C137.266 122.9 135.864 122.773 134.749 122.008C132.631 120.559 132.504 117.517 132.631 114.953C132.759 112.389 132.727 109.363 130.672 107.818C134.144 108.073 137.696 108.344 140.849 109.793C144.002 111.243 146.742 114.141 146.965 117.613C147.076 119.349 146.614 121.276 147.586 122.725C148.637 124.286 151.01 124.668 151.806 126.372C152.714 128.331 150.946 130.417 150.389 132.504C149.879 134.463 150.468 136.533 150.532 138.556C150.596 140.578 149.815 142.983 147.856 143.524L147.108 144.687Z" fill="#FFBE55"/>
<path d="M147.952 140.1C146.837 130.274 142.537 109.969 130.8 107.882" stroke="white" stroke-width="0.75" stroke-miterlimit="10" stroke-linecap="round"/>
<path d="M157.985 163.559H142.855C141.804 163.559 140.944 162.699 140.944 161.648L139.67 139.83C139.67 138.779 140.53 137.919 141.581 137.919H159.259C160.31 137.919 161.17 138.779 161.17 139.83L159.896 161.648C159.896 162.699 159.036 163.559 157.985 163.559Z" fill="#CCE9FF"/>
<path d="M20.7905 94.2662L30.553 92.7859L37.1904 136.56L27.4279 138.04L20.7905 94.2662Z" fill="#FFBE55"/>
<path d="M25.6685 93.5303L30.5497 92.7901L37.187 136.564L32.3058 137.304L25.6685 93.5303Z" fill="#FFBE55"/>
<path d="M30.5619 92.8322L20.7993 94.3133L23.0927 88.4367L24.3986 85.1241L26.6282 87.9111L30.5619 92.8322Z" fill="#FFEBC2"/>
<path d="M26.6281 87.9111L23.0925 88.4367L24.3985 85.1241L26.6281 87.9111Z" fill="#0E538C"/>
<path d="M38.3999 82.7641L48.2345 83.6447L44.2857 127.742L34.4511 126.861L38.3999 82.7641Z" fill="#FFBE55"/>
<path d="M43.3264 83.208L48.2437 83.6483L44.2949 127.745L39.3776 127.305L43.3264 83.208Z" fill="#FFBE55"/>
<path d="M48.2397 83.6907L38.3975 82.8147L42.0286 77.6547L44.083 74.7403L45.5801 77.9733L48.2397 83.6907Z" fill="#FFEBC2"/>
<path d="M45.58 77.9733L42.0286 77.6547L44.083 74.7403L45.58 77.9733Z" fill="#0E538C"/>
<path d="M54.7055 163.719H15.91L10.8296 103.678H57.8111L54.7055 163.719Z" fill="#CCE9FF"/>
<path opacity="0.5" d="M34.3203 163.719H54.7055L57.8111 103.678H34.3203V163.719Z" fill="#CCE9FF"/>
<path d="M42.8408 146.773H141.422V160.326H42.8408V146.773Z" fill="#FFEBC2"/>
<path d="M43.2547 146.773V160.326H146.678V161.345C146.678 162.604 145.579 163.623 144.225 163.623H43.7006C40.4995 163.623 37.9036 161.234 37.9036 158.272V149.21C37.9036 146.248 40.4995 143.859 43.7006 143.859H144.225C145.579 143.859 146.678 144.878 146.678 146.136V146.789H43.2547V146.773Z" fill="#FFBE55"/>
<path d="M42.8408 152.809H141.422V160.31H42.8408V152.809Z" fill="#FFEBC2"/>
<path d="M55.5815 130.274H135.689V142.059H55.5815V130.274Z" fill="#CCE9FF"/>
<path d="M55.5815 130.274V142.059H138.715V142.951C138.715 144.05 137.823 144.926 136.74 144.926H55.9319C53.3678 144.926 51.2815 142.84 51.2815 140.275V132.392C51.2815 129.828 53.3678 127.742 55.9319 127.742H136.74C137.823 127.742 138.715 128.634 138.715 129.717V130.29H55.5815V130.274Z" fill="#2A94F4"/>
<path d="M90.2045 90.1567C89.1056 88.7074 89.0101 86.7167 90.0452 85.2037C90.8734 83.9934 91.4308 82.4963 91.3671 81.3974C91.2397 79.4226 90.0134 77.6071 88.3412 76.5241C86.1434 75.0908 83.213 74.8837 80.8401 75.9986C78.4671 77.1134 76.7471 79.5023 76.4445 82.0982C76.2215 83.9615 76.6515 86 75.696 87.6245C74.9952 88.7871 73.7052 89.4719 72.4312 89.9337C71.1412 90.3797 69.7875 90.6823 68.609 91.3671C67.4304 92.0519 66.4271 93.2304 66.443 94.6C66.459 95.6352 67.0482 96.5908 67.1119 97.61C67.2075 99.1071 66.1564 100.429 65.0416 101.416C63.9108 102.404 62.6208 103.264 61.8564 104.554C60.5982 106.688 61.1875 109.57 62.7801 111.482C64.3727 113.393 66.7616 114.46 69.1504 115.081C75.6801 116.801 82.5601 115.686 89.2967 115.574C91.383 115.543 93.5171 115.606 95.5397 115.081C97.5623 114.555 99.5371 113.345 100.381 111.434C101.241 109.523 100.811 107.197 99.6645 105.462C98.5178 103.726 96.7182 102.467 94.823 101.576C93.4534 100.923 91.9882 100.413 90.8734 99.3937C89.7586 98.3745 89.1056 96.6386 89.8541 95.3167C90.1408 94.8071 90.6186 94.4089 90.8893 93.8993C91.4308 92.9119 91.2078 91.6537 90.6026 90.6982C90.4912 90.5389 90.3638 90.3637 90.2045 90.1567Z" fill="#0E538C"/>
<path d="M55.5815 135.53H135.689V142.059H55.5815V135.53Z" fill="#CCE9FF"/>
<path d="M91.7334 118.807L101.607 125.815L113.711 150.819H111.482L97.9445 128.682C97.9445 128.682 93.326 128.841 91.7334 127.407C90.1408 125.974 80.9834 119.763 80.9834 119.763L91.7334 118.807Z" fill="#0B4870"/>
<path d="M74.2625 116.801C72.4629 121.674 73.7369 128.522 79.7888 128.841C85.8406 129.159 87.7518 128.841 87.7518 128.841L99.5369 152.73H102.244L93.0073 125.974L81.7795 119.763L74.2625 116.801Z" fill="#0E538C"/>
<path d="M83.4519 89.0259C85.0445 91.0963 88.8667 96.8296 90.3 103.2C91.7334 109.57 95.7149 118.807 95.7149 118.807H91.0963L86.6371 103.678L82.4963 89.5037L83.4519 89.0259Z" fill="#4EA3FB"/>
<path d="M88.3569 80.5693C88.5958 84.4712 86.8917 87.1468 84.4551 87.2742C82.0184 87.4016 80.4258 83.866 81.1584 80.5693C82.8625 77.639 85.1877 77.4001 85.1877 77.4001H86.6528L88.3569 80.5693Z" fill="#FFE3CA"/>
<path d="M86.7326 78.2441C86.2867 79.6137 85.2993 80.7923 84.0252 81.4612C82.7511 82.13 81.2222 82.2893 79.8367 81.8752L83.3085 76.9223H86.2867L89.1374 79.1838L88.7074 81.7797C87.5926 80.9356 86.7326 78.2441 86.7326 78.2441Z" fill="#0E538C"/>
<path d="M83.7225 86.8122C83.2129 88.787 83.3721 90.8574 83.3721 91.1759C82.8943 91.8129 80.6647 91.6537 80.3462 89.424C80.824 86.5574 81.7795 83.3722 81.7795 83.3722L82.5758 85.124L83.7225 86.8122Z" fill="#FFE3CA"/>
<path d="M80.6649 87.7359C78.6742 88.3889 71.9853 91.4148 71.6667 92.0518C72.1445 93.8037 74.5334 119.763 74.5334 119.763H85.363C85.363 119.763 83.9297 105.43 84.726 104.474C85.5223 103.518 88.0705 100.174 87.7519 99.6963C87.4334 99.2185 83.3882 88.9463 83.3882 88.9463L80.6649 87.7359Z" fill="#2A94F4"/>
<path d="M71.6666 92.0518C70.1058 93.2463 63.5443 103.996 65.6147 109.73C67.6851 115.463 74.4536 118.839 74.4536 118.839V115.686C74.4536 115.686 68.9592 111.322 69.2777 108.137C69.5962 104.952 73.4184 98.4222 73.4184 98.4222L71.6666 92.0518Z" fill="#4EA3FB"/>
<path d="M97.3233 121.595H73.8803C73.1477 121.595 72.5426 120.989 72.5426 120.257L71.9055 105.254C71.9055 104.522 72.5107 103.917 73.2433 103.917H97.6418C98.3744 103.917 98.9796 104.522 98.9796 105.254L98.6611 120.257C98.6611 120.989 98.0559 121.595 97.3233 121.595Z" fill="#FFBE55"/>
<path d="M101.862 152.729C103.439 153.08 105.573 154.816 106.592 155.708C106.799 155.883 106.672 156.233 106.385 156.233C104.745 156.201 101.034 156.026 100.174 155.294C99.0593 154.338 99.3778 152.745 99.3778 152.745H101.862V152.729ZM113.679 150.755C115.081 151.137 116.928 152.761 117.852 153.637C118.059 153.828 117.9 154.163 117.629 154.147C116.084 154.035 112.772 153.733 112.023 153.016C111.036 152.092 111.402 150.643 111.402 150.643L113.679 150.755Z" fill="#1A87D8"/>
<path d="M85.5222 115.144C86.8415 115.144 87.9111 114.075 87.9111 112.756C87.9111 111.436 86.8415 110.367 85.5222 110.367C84.2028 110.367 83.1333 111.436 83.1333 112.756C83.1333 114.075 84.2028 115.144 85.5222 115.144Z" fill="white"/>
<path d="M64.5001 146.678L61.4742 144.926L58.4482 146.678V135.53H64.5001V146.678ZM111.418 80.6649C111.418 80.9675 111.306 81.2382 111.115 81.4612C111.306 81.6682 111.418 81.9549 111.418 82.2575V83.2449C111.418 83.4519 111.354 83.6589 111.259 83.8341C111.354 84.0093 111.418 84.2163 111.418 84.4234V85.4108C111.418 86.0637 110.892 86.5893 110.239 86.5893H99.9831C99.3301 86.5893 98.8046 86.0637 98.8046 85.4108V84.4075C98.8046 84.2004 98.8683 83.9934 98.9638 83.8182C98.8683 83.643 98.8046 83.436 98.8046 83.2289V82.2415C98.8046 81.9389 98.916 81.6682 99.1072 81.4452C98.916 81.2382 98.8046 80.9515 98.8046 80.6489V79.6615C98.8046 79.0086 99.3301 78.483 99.9831 78.483H110.239C110.892 78.483 111.418 79.0086 111.418 79.6615V80.6649ZM119.604 58.3367C119.604 64.086 116.259 69.0389 111.418 71.396V76.7471C111.418 77.1452 111.083 77.4797 110.685 77.4797H99.5372C99.139 77.4797 98.8046 77.1452 98.8046 76.7471V71.396C93.9631 69.0549 90.6186 64.086 90.6186 58.3367C90.6186 50.326 97.1005 43.8441 105.111 43.8441C113.122 43.8441 119.604 50.3419 119.604 58.3367Z" fill="#FFBE55"/>
<path opacity="0.23" d="M110.048 81.5407H100.333M110.048 83.7703H100.333" stroke="#7F7F7F" stroke-width="2" stroke-miterlimit="10" stroke-linecap="round"/>
<path d="M107.595 60.1204C107.42 59.9611 107.165 59.8815 106.895 59.9134C106.56 59.9452 106.242 60.1363 106.035 60.4071C105.86 60.6459 105.764 60.9326 105.716 61.2034C105.573 61.1237 105.414 61.0441 105.27 60.9485L105.223 60.9167H105.015L104.968 60.9485C104.808 61.0441 104.665 61.1237 104.522 61.2034C104.474 60.9326 104.378 60.6459 104.203 60.4071C104.012 60.1363 103.678 59.9452 103.343 59.9134C103.073 59.8815 102.834 59.9611 102.643 60.1204C102.404 60.3434 102.324 60.6619 102.404 60.9963C102.531 61.4422 102.897 61.8085 103.327 61.8882C103.598 61.9359 103.853 61.92 104.124 61.8563C104.522 67.0322 104.681 72.2719 104.57 77.4478H105.047C105.159 72.256 105 67.0004 104.601 61.8245C104.601 61.7767 104.601 61.7289 104.585 61.6811C104.777 61.6015 104.952 61.5059 105.127 61.3945C105.302 61.49 105.477 61.6015 105.668 61.6811C105.668 61.7289 105.668 61.7767 105.653 61.8245C105.254 67.0004 105.095 72.256 105.207 77.4478H105.684C105.573 72.2719 105.732 67.0163 106.13 61.8563C106.385 61.92 106.656 61.9519 106.927 61.8882C107.341 61.8085 107.723 61.4422 107.85 60.9963C107.914 60.6619 107.834 60.3434 107.595 60.1204ZM103.407 61.4422C103.168 61.3945 102.929 61.1556 102.85 60.8848C102.818 60.7734 102.802 60.5982 102.945 60.4867C103.025 60.4071 103.136 60.3911 103.216 60.3911H103.28C103.471 60.4071 103.678 60.5185 103.805 60.6937C103.948 60.8848 104.028 61.1237 104.06 61.3945C103.837 61.4582 103.63 61.4741 103.407 61.4422ZM107.373 60.8848C107.293 61.1556 107.07 61.3945 106.815 61.4422C106.608 61.49 106.385 61.4582 106.178 61.3945C106.226 61.1237 106.29 60.8848 106.433 60.6937C106.544 60.5345 106.751 60.423 106.958 60.3911C107.054 60.3752 107.181 60.3911 107.293 60.4867C107.404 60.5982 107.388 60.7734 107.373 60.8848Z" fill="white"/>
<path d="M101.289 46.5037C97.7851 47.7778 92.0518 52.3963 92.5295 59.8815" stroke="white" stroke-width="4" stroke-miterlimit="10" stroke-linecap="round"/>
<path d="M82.0982 72.4629C84.3411 72.4629 86.1593 70.6447 86.1593 68.4018C86.1593 66.1589 84.3411 64.3407 82.0982 64.3407C79.8553 64.3407 78.0371 66.1589 78.0371 68.4018C78.0371 70.6447 79.8553 72.4629 82.0982 72.4629Z" fill="#FFBE55"/>
<path d="M125.576 56.8556C126.587 56.8556 127.407 56.0356 127.407 55.0241C127.407 54.0126 126.587 53.1926 125.576 53.1926C124.564 53.1926 123.744 54.0126 123.744 55.0241C123.744 56.0356 124.564 56.8556 125.576 56.8556Z" fill="#FFBE55"/>
<path d="M119.604 86.7963C121.275 86.7963 122.629 85.4415 122.629 83.7704C122.629 82.0992 121.275 80.7444 119.604 80.7444C117.932 80.7444 116.578 82.0992 116.578 83.7704C116.578 85.4415 117.932 86.7963 119.604 86.7963Z" fill="#FFBE55"/>
<path d="M90.6185 44.5926C92.2896 44.5926 93.6444 43.2378 93.6444 41.5666C93.6444 39.8955 92.2896 38.5407 90.6185 38.5407C88.9473 38.5407 87.5925 39.8955 87.5925 41.5666C87.5925 43.2378 88.9473 44.5926 90.6185 44.5926Z" fill="#FFBE55"/>
<path opacity="0.14" d="M64.5001 146.678L61.4742 144.926L58.4482 146.678V135.53H64.5001V146.678Z" fill="#0C0C0C"/>
</svg>
