<svg width="38" height="33" viewBox="0 0 38 33" fill="none" xmlns="http://www.w3.org/2000/svg">
<path d="M0.738108 17.3259C0.886683 17.6589 1.10947 17.9631 1.39367 18.2211L17.0021 31.785C17.2932 32.0379 17.6387 32.2385 18.019 32.3754C18.3993 32.5123 18.8069 32.5828 19.2185 32.5828C20.0498 32.5828 20.8471 32.2958 21.4349 31.785C21.7259 31.532 21.9568 31.2318 22.1144 30.9013C22.2719 30.5708 22.3529 30.2166 22.3529 29.8589C22.3529 29.1365 22.0227 28.4437 21.4349 27.9328L11.1333 19.0078L34.8269 19.0078C35.6548 19.0078 36.4489 18.722 37.0343 18.2133C37.6197 17.7045 37.9486 17.0145 37.9486 16.2951C37.9486 15.5756 37.6197 14.8856 37.0343 14.3769C36.4489 13.8681 35.6548 13.5823 34.8269 13.5823L11.1333 13.5823L21.4349 4.65732C21.7275 4.40513 21.9597 4.1051 22.1182 3.77452C22.2767 3.44395 22.3583 3.08937 22.3583 2.73126C22.3583 2.37314 22.2767 2.01856 22.1182 1.68799C21.9597 1.35741 21.7275 1.05738 21.4349 0.805195C21.1447 0.550932 20.7994 0.349113 20.419 0.21139C20.0386 0.0736664 19.6306 0.00276149 19.2185 0.00276149C18.8064 0.00276149 18.3984 0.0736664 18.018 0.21139C17.6376 0.349113 17.2923 0.550932 17.0021 0.805195L1.39367 14.369C1.10947 14.627 0.886683 14.9312 0.738108 15.2642C0.425884 15.9247 0.425884 16.6655 0.738108 17.3259Z" fill="#E7CAC9"/>
</svg>
