<svg width="38" height="33" viewBox="0 0 38 33" fill="none" xmlns="http://www.w3.org/2000/svg">
<path d="M37.2369 15.2568C37.0883 14.9238 36.8655 14.6196 36.5813 14.3616L20.9729 0.797802C20.6818 0.544867 20.3363 0.34423 19.956 0.207343C19.5757 0.0704557 19.1681 0 18.7565 0C17.9252 0 17.1279 0.286978 16.5401 0.797802C16.249 1.05074 16.0181 1.35101 15.8606 1.68149C15.7031 2.01196 15.622 2.36616 15.622 2.72386C15.622 3.44628 15.9523 4.1391 16.5401 4.64993L26.8417 13.5749H3.14805C2.32013 13.5749 1.52612 13.8607 0.940688 14.3695C0.355259 14.8782 0.0263672 15.5682 0.0263672 16.2877C0.0263672 17.0072 0.355259 17.6972 0.940688 18.2059C1.52612 18.7146 2.32013 19.0005 3.14805 19.0005H26.8417L16.5401 27.9254C16.2475 28.1776 16.0153 28.4777 15.8568 28.8082C15.6983 29.1388 15.6167 29.4934 15.6167 29.8515C15.6167 30.2096 15.6983 30.5642 15.8568 30.8948C16.0153 31.2253 16.2475 31.5254 16.5401 31.7776C16.8303 32.0318 17.1755 32.2337 17.556 32.3714C17.9364 32.5091 18.3444 32.58 18.7565 32.58C19.1686 32.58 19.5766 32.5091 19.957 32.3714C20.3374 32.2337 20.6827 32.0318 20.9729 31.7776L36.5813 18.2137C36.8655 17.9558 37.0883 17.6515 37.2369 17.3185C37.5491 16.6581 37.5491 15.9173 37.2369 15.2568Z" fill="#E7CAC9"/>
</svg>
